<mxfile host="app.diagrams.net" modified="2023-04-14T13:51:45.190Z" agent="Mozilla/5.0 (Windows NT 10.0; Win64; x64) AppleWebKit/537.36 (KHTML, like Gecko) Chrome/112.0.0.0 Safari/537.36" etag="nB0niQt2FF4CvrFaR0iq" version="21.1.5" type="device">
  <diagram id="y5UhOXJ24lHy6HSWHHRA" name="Σελίδα-1">
    <mxGraphModel dx="2275" dy="1139" grid="0" gridSize="10" guides="1" tooltips="1" connect="1" arrows="1" fold="1" page="0" pageScale="1" pageWidth="827" pageHeight="1169" math="0" shadow="0">
      <root>
        <mxCell id="0" />
        <mxCell id="1" parent="0" />
        <mxCell id="HchMumat6N0xvnnnB4oJ-7" value="Αναζήτηση φαγητού" style="edgeStyle=none;curved=1;rounded=0;orthogonalLoop=1;jettySize=auto;html=1;fontSize=12;startSize=8;endSize=8;" edge="1" parent="1" source="HchMumat6N0xvnnnB4oJ-2" target="HchMumat6N0xvnnnB4oJ-6">
          <mxGeometry x="1" y="-82" relative="1" as="geometry">
            <mxPoint y="1" as="offset" />
          </mxGeometry>
        </mxCell>
        <mxCell id="HchMumat6N0xvnnnB4oJ-53" value="Προσθήκη φαγητού στη λίστα φαγητών" style="edgeStyle=none;curved=1;rounded=0;orthogonalLoop=1;jettySize=auto;html=1;fontSize=12;startSize=8;endSize=8;" edge="1" parent="1" source="HchMumat6N0xvnnnB4oJ-2" target="HchMumat6N0xvnnnB4oJ-39">
          <mxGeometry x="0.0572" y="27" relative="1" as="geometry">
            <mxPoint x="371" y="111" as="targetPoint" />
            <mxPoint as="offset" />
          </mxGeometry>
        </mxCell>
        <mxCell id="HchMumat6N0xvnnnB4oJ-55" value="" style="edgeStyle=none;curved=1;rounded=0;orthogonalLoop=1;jettySize=auto;html=1;fontSize=12;startSize=8;endSize=8;" edge="1" parent="1" source="HchMumat6N0xvnnnB4oJ-2" target="HchMumat6N0xvnnnB4oJ-6">
          <mxGeometry relative="1" as="geometry" />
        </mxCell>
        <mxCell id="HchMumat6N0xvnnnB4oJ-56" value="" style="edgeStyle=none;curved=1;rounded=0;orthogonalLoop=1;jettySize=auto;html=1;fontSize=12;startSize=8;endSize=8;" edge="1" parent="1" source="HchMumat6N0xvnnnB4oJ-2" target="HchMumat6N0xvnnnB4oJ-18">
          <mxGeometry relative="1" as="geometry" />
        </mxCell>
        <mxCell id="HchMumat6N0xvnnnB4oJ-57" value="Προσθήκη φαγητού στην ημερήσια λίστα" style="edgeLabel;html=1;align=center;verticalAlign=middle;resizable=0;points=[];fontSize=16;rotation=-45;" vertex="1" connectable="0" parent="HchMumat6N0xvnnnB4oJ-56">
          <mxGeometry x="-0.2525" y="2" relative="1" as="geometry">
            <mxPoint x="-50" y="14" as="offset" />
          </mxGeometry>
        </mxCell>
        <mxCell id="HchMumat6N0xvnnnB4oJ-2" value="Σπύρος Σούλης" style="shape=umlActor;verticalLabelPosition=bottom;verticalAlign=top;html=1;fontSize=16;" vertex="1" parent="1">
          <mxGeometry x="101" y="-108" width="30" height="60" as="geometry" />
        </mxCell>
        <mxCell id="HchMumat6N0xvnnnB4oJ-11" value="" style="edgeStyle=none;curved=1;rounded=0;orthogonalLoop=1;jettySize=auto;html=1;fontSize=12;startSize=8;endSize=8;" edge="1" parent="1" source="HchMumat6N0xvnnnB4oJ-6" target="HchMumat6N0xvnnnB4oJ-10">
          <mxGeometry relative="1" as="geometry" />
        </mxCell>
        <mxCell id="HchMumat6N0xvnnnB4oJ-6" value="Σελίδα αναζήτησης φαγητού" style="shape=umlBoundary;whiteSpace=wrap;html=1;fontSize=16;" vertex="1" parent="1">
          <mxGeometry x="181" y="5" width="110" height="57.5" as="geometry" />
        </mxCell>
        <mxCell id="HchMumat6N0xvnnnB4oJ-13" value="ναι" style="edgeStyle=none;curved=1;rounded=0;orthogonalLoop=1;jettySize=auto;html=1;fontSize=12;startSize=8;endSize=8;" edge="1" parent="1" source="HchMumat6N0xvnnnB4oJ-10" target="HchMumat6N0xvnnnB4oJ-12">
          <mxGeometry y="12" relative="1" as="geometry">
            <mxPoint as="offset" />
          </mxGeometry>
        </mxCell>
        <mxCell id="HchMumat6N0xvnnnB4oJ-21" value="" style="edgeStyle=none;curved=1;rounded=0;orthogonalLoop=1;jettySize=auto;html=1;fontSize=12;startSize=8;endSize=8;" edge="1" parent="1" source="HchMumat6N0xvnnnB4oJ-10" target="HchMumat6N0xvnnnB4oJ-20">
          <mxGeometry relative="1" as="geometry" />
        </mxCell>
        <mxCell id="HchMumat6N0xvnnnB4oJ-36" value="οχι" style="edgeStyle=none;curved=1;rounded=0;orthogonalLoop=1;jettySize=auto;html=1;fontSize=12;startSize=8;endSize=8;entryX=-0.05;entryY=0.6;entryDx=0;entryDy=0;entryPerimeter=0;" edge="1" parent="1" source="HchMumat6N0xvnnnB4oJ-10" target="HchMumat6N0xvnnnB4oJ-37">
          <mxGeometry x="-0.2273" y="11" relative="1" as="geometry">
            <mxPoint x="297.48967377625013" y="240.54557458129193" as="targetPoint" />
            <mxPoint as="offset" />
          </mxGeometry>
        </mxCell>
        <mxCell id="HchMumat6N0xvnnnB4oJ-10" value="Υπάρχει το φαγητό;" style="ellipse;shape=umlControl;whiteSpace=wrap;html=1;fontSize=16;" vertex="1" parent="1">
          <mxGeometry x="141" y="139" width="84" height="89" as="geometry" />
        </mxCell>
        <mxCell id="HchMumat6N0xvnnnB4oJ-19" value="" style="edgeStyle=none;curved=1;rounded=0;orthogonalLoop=1;jettySize=auto;html=1;fontSize=12;startSize=8;endSize=8;" edge="1" parent="1" source="HchMumat6N0xvnnnB4oJ-12" target="HchMumat6N0xvnnnB4oJ-18">
          <mxGeometry relative="1" as="geometry" />
        </mxCell>
        <mxCell id="HchMumat6N0xvnnnB4oJ-12" value="Εμφάνισε" style="ellipse;shape=umlControl;whiteSpace=wrap;html=1;fontSize=16;" vertex="1" parent="1">
          <mxGeometry x="27" y="260" width="70" height="80" as="geometry" />
        </mxCell>
        <mxCell id="HchMumat6N0xvnnnB4oJ-25" value="" style="edgeStyle=none;curved=1;rounded=0;orthogonalLoop=1;jettySize=auto;html=1;fontSize=12;startSize=8;endSize=8;" edge="1" parent="1" source="HchMumat6N0xvnnnB4oJ-18" target="HchMumat6N0xvnnnB4oJ-24">
          <mxGeometry relative="1" as="geometry" />
        </mxCell>
        <mxCell id="HchMumat6N0xvnnnB4oJ-18" value="Σελίδα λεπτομέρειες φαγητού" style="shape=umlBoundary;whiteSpace=wrap;html=1;fontSize=16;" vertex="1" parent="1">
          <mxGeometry x="-272" y="213" width="100" height="80" as="geometry" />
        </mxCell>
        <mxCell id="HchMumat6N0xvnnnB4oJ-20" value="Λίστα φαγητών" style="ellipse;shape=umlEntity;whiteSpace=wrap;html=1;fontSize=16;" vertex="1" parent="1">
          <mxGeometry x="17" y="143.5" width="80" height="80" as="geometry" />
        </mxCell>
        <mxCell id="HchMumat6N0xvnnnB4oJ-31" value="ναι" style="edgeStyle=none;curved=1;rounded=0;orthogonalLoop=1;jettySize=auto;html=1;fontSize=12;startSize=8;endSize=8;" edge="1" parent="1" source="HchMumat6N0xvnnnB4oJ-24" target="HchMumat6N0xvnnnB4oJ-30">
          <mxGeometry x="-0.1018" y="-17" relative="1" as="geometry">
            <mxPoint as="offset" />
          </mxGeometry>
        </mxCell>
        <mxCell id="HchMumat6N0xvnnnB4oJ-24" value="Προσθήκη;" style="ellipse;shape=umlControl;whiteSpace=wrap;html=1;fontSize=16;" vertex="1" parent="1">
          <mxGeometry x="-226" y="434" width="70" height="80" as="geometry" />
        </mxCell>
        <mxCell id="HchMumat6N0xvnnnB4oJ-26" value="Ημερήσια λίστα" style="ellipse;shape=umlEntity;whiteSpace=wrap;html=1;fontSize=16;" vertex="1" parent="1">
          <mxGeometry x="-357" y="316" width="80" height="80" as="geometry" />
        </mxCell>
        <mxCell id="HchMumat6N0xvnnnB4oJ-33" value="" style="edgeStyle=none;curved=1;rounded=0;orthogonalLoop=1;jettySize=auto;html=1;fontSize=12;startSize=8;endSize=8;" edge="1" parent="1" source="HchMumat6N0xvnnnB4oJ-30" target="HchMumat6N0xvnnnB4oJ-32">
          <mxGeometry relative="1" as="geometry" />
        </mxCell>
        <mxCell id="HchMumat6N0xvnnnB4oJ-34" value="" style="edgeStyle=none;curved=1;rounded=0;orthogonalLoop=1;jettySize=auto;html=1;fontSize=12;startSize=8;endSize=8;" edge="1" parent="1" source="HchMumat6N0xvnnnB4oJ-30" target="HchMumat6N0xvnnnB4oJ-26">
          <mxGeometry relative="1" as="geometry" />
        </mxCell>
        <mxCell id="HchMumat6N0xvnnnB4oJ-30" value="Πρόσθεσε" style="ellipse;shape=umlControl;whiteSpace=wrap;html=1;fontSize=16;" vertex="1" parent="1">
          <mxGeometry x="-354" y="431" width="70" height="80" as="geometry" />
        </mxCell>
        <mxCell id="HchMumat6N0xvnnnB4oJ-32" value="Σελίδα ημερήσια λίστα" style="shape=umlBoundary;whiteSpace=wrap;html=1;fontSize=16;" vertex="1" parent="1">
          <mxGeometry x="-512" y="431" width="100" height="80" as="geometry" />
        </mxCell>
        <mxCell id="HchMumat6N0xvnnnB4oJ-40" value="" style="edgeStyle=none;curved=1;rounded=0;orthogonalLoop=1;jettySize=auto;html=1;fontSize=12;startSize=8;endSize=8;" edge="1" parent="1" source="HchMumat6N0xvnnnB4oJ-37" target="HchMumat6N0xvnnnB4oJ-39">
          <mxGeometry relative="1" as="geometry" />
        </mxCell>
        <mxCell id="HchMumat6N0xvnnnB4oJ-37" value="εμφάνισε μήνυμα ανεπιτυχούς εντοπισμού" style="ellipse;shape=umlControl;whiteSpace=wrap;html=1;fontSize=16;" vertex="1" parent="1">
          <mxGeometry x="319" y="102" width="80" height="100" as="geometry" />
        </mxCell>
        <mxCell id="HchMumat6N0xvnnnB4oJ-52" value="" style="edgeStyle=none;curved=1;rounded=0;orthogonalLoop=1;jettySize=auto;html=1;fontSize=12;startSize=8;endSize=8;" edge="1" parent="1" source="HchMumat6N0xvnnnB4oJ-39" target="HchMumat6N0xvnnnB4oJ-41">
          <mxGeometry relative="1" as="geometry" />
        </mxCell>
        <mxCell id="HchMumat6N0xvnnnB4oJ-39" value="Σελίδα προσθήκης&amp;nbsp; φαγητού στη λίστα φαγητών" style="shape=umlBoundary;whiteSpace=wrap;html=1;fontSize=16;" vertex="1" parent="1">
          <mxGeometry x="434" y="1" width="135" height="91" as="geometry" />
        </mxCell>
        <mxCell id="HchMumat6N0xvnnnB4oJ-44" value="" style="edgeStyle=none;curved=1;rounded=0;orthogonalLoop=1;jettySize=auto;html=1;fontSize=12;startSize=8;endSize=8;" edge="1" parent="1" source="HchMumat6N0xvnnnB4oJ-41" target="HchMumat6N0xvnnnB4oJ-43">
          <mxGeometry relative="1" as="geometry" />
        </mxCell>
        <mxCell id="HchMumat6N0xvnnnB4oJ-45" value="" style="edgeStyle=none;curved=1;rounded=0;orthogonalLoop=1;jettySize=auto;html=1;fontSize=12;startSize=8;endSize=8;" edge="1" parent="1" source="HchMumat6N0xvnnnB4oJ-41" target="HchMumat6N0xvnnnB4oJ-12">
          <mxGeometry relative="1" as="geometry" />
        </mxCell>
        <mxCell id="HchMumat6N0xvnnnB4oJ-41" value="Προσθήκη" style="ellipse;shape=umlControl;whiteSpace=wrap;html=1;fontSize=16;" vertex="1" parent="1">
          <mxGeometry x="342" y="295" width="70" height="80" as="geometry" />
        </mxCell>
        <mxCell id="HchMumat6N0xvnnnB4oJ-43" value="Λίστα φαγητών" style="ellipse;shape=umlEntity;whiteSpace=wrap;html=1;fontSize=16;" vertex="1" parent="1">
          <mxGeometry x="340" y="431" width="80" height="80" as="geometry" />
        </mxCell>
      </root>
    </mxGraphModel>
  </diagram>
</mxfile>
